<?xml version="1.0" encoding="utf-8"?>
<!-- Generator: Adobe Illustrator 22.0.0, SVG Export Plug-In . SVG Version: 6.00 Build 0)  -->
<svg version="1.1" id="Capa_1" xmlns="http://www.w3.org/2000/svg" xmlns:xlink="http://www.w3.org/1999/xlink" x="0px" y="0px"
	 viewBox="0 0 50 50" style="enable-background:new 0 0 50 50;" xml:space="preserve">
<style type="text/css">
	.st0{fill:#DE1326;}
	.st1{display:none;}
</style>
<g id="Design">
	<g>
		<g>
			<g>
				<path class="st0" d="M31.6,7.3H18.4c-6.1,0-11,4.9-11,11v13.2c0,6.1,4.9,11,11,11h13.2c6.1,0,11-4.9,11-11V18.4
					C42.7,12.3,37.7,7.3,31.6,7.3z M39.3,31.6c0,4.3-3.5,7.7-7.7,7.7H18.4c-4.3,0-7.7-3.5-7.7-7.7V18.4c0-4.3,3.5-7.7,7.7-7.7h13.2
					c4.3,0,7.7,3.5,7.7,7.7V31.6z"/>
			</g>
		</g>
		<g>
			<g>
				<path class="st0" d="M25,16.2c-4.9,0-8.8,4-8.8,8.8s4,8.8,8.8,8.8s8.8-4,8.8-8.8S29.9,16.2,25,16.2z M25,30.5
					c-3,0-5.5-2.5-5.5-5.5s2.5-5.5,5.5-5.5s5.5,2.5,5.5,5.5S28,30.5,25,30.5z"/>
			</g>
		</g>
		<g>
			<g>
				<circle class="st0" cx="34.3" cy="15.8" r="1.6"/>
			</g>
		</g>
	</g>
</g>
<g id="VR" class="st1">
</g>
</svg>
