<?xml version="1.0" encoding="utf-8"?>
<!-- Generator: Adobe Illustrator 22.0.0, SVG Export Plug-In . SVG Version: 6.00 Build 0)  -->
<svg version="1.1" xmlns="http://www.w3.org/2000/svg" xmlns:xlink="http://www.w3.org/1999/xlink" x="0px" y="0px"
	 viewBox="0 0 50 50" style="enable-background:new 0 0 50 50;" xml:space="preserve">
<style type="text/css">
	.st0{fill:#F4F4F4;}
	.st1{fill:#EAEAEA;}
	.st2{fill:#0C141B;}
	.st3{fill:#FFFFFF;stroke:#9E9E9E;stroke-miterlimit:10;}
	.st4{fill:#DE1326;}
	.st5{fill:#FFFFFF;}
	.st6{fill:none;stroke:#DE1326;stroke-miterlimit:10;}
	.st7{clip-path:url(#SVGID_8_);}
	.st8{fill:#C61228;}
	.st9{clip-path:url(#SVGID_10_);}
	.st10{fill:#CECECE;}
	.st11{opacity:0.6;fill:#0C141B;}
	.st12{fill:#0E171E;}
	.st13{fill:none;stroke:#445766;stroke-miterlimit:10;}
	.st14{opacity:0.5;}
	.st15{fill:none;stroke:#0C141B;stroke-width:0.5;stroke-miterlimit:10;}
	.st16{fill:none;stroke:#FFFFFF;stroke-width:0.5;stroke-miterlimit:10;}
	.st17{fill:url(#SVGID_19_);}
	.st18{fill:url(#SVGID_22_);}
	.st19{fill:url(#SVGID_25_);}
	.st20{fill:none;stroke:#B5B5B5;stroke-miterlimit:10;}
	.st21{fill:none;stroke:#FFFFFF;stroke-miterlimit:10;}
	.st22{fill:#EEEEEE;}
	.st23{fill:none;}
	.st24{fill:#606060;}
	.st25{clip-path:url(#SVGID_55_);fill:#DB0008;}
	.st26{clip-path:url(#SVGID_59_);fill:#DB0008;}
	.st27{fill:none;stroke:#DE1326;stroke-width:2.5;stroke-miterlimit:10;}
	.st28{display:none;}
	.st29{display:inline;}
	.st30{opacity:0.4;fill:#76A5D6;}
	.st31{opacity:0.4;fill:#4A72AC;}
	.st32{display:inline;fill:none;stroke:#9C1127;stroke-width:20;stroke-miterlimit:10;}
	.st33{opacity:0.2;fill:#9C1127;}
</style>
<g id="Design">
	<g>
		<g>
			<g>
				<path class="st4" d="M25,34.2c-5.1,0-9.2-4.1-9.2-9.2s4.1-9.2,9.2-9.2s9.2,4.1,9.2,9.2S30.1,34.2,25,34.2z M25,18.8
					c-3.4,0-6.2,2.8-6.2,6.2s2.8,6.2,6.2,6.2c3.4,0,6.2-2.8,6.2-6.2S28.4,18.8,25,18.8z"/>
			</g>
			<g>
				<path class="st4" d="M25,14.2c-0.9,0-1.5-0.7-1.5-1.5V6.6c0-0.9,0.7-1.5,1.5-1.5s1.5,0.7,1.5,1.5v6.1
					C26.5,13.6,25.9,14.2,25,14.2z"/>
			</g>
			<g>
				<path class="st4" d="M25,44.9c-0.9,0-1.5-0.7-1.5-1.5v-6.1c0-0.9,0.7-1.5,1.5-1.5s1.5,0.7,1.5,1.5v6.1
					C26.5,44.2,25.9,44.9,25,44.9z"/>
			</g>
			<g>
				<path class="st4" d="M33.7,17.8c-0.4,0-0.8-0.2-1.1-0.5c-0.6-0.6-0.6-1.6,0-2.2l4.3-4.3c0.6-0.6,1.6-0.6,2.2,0
					c0.6,0.6,0.6,1.6,0,2.2l-4.3,4.3C34.5,17.7,34.1,17.8,33.7,17.8z"/>
			</g>
			<g>
				<path class="st4" d="M12,39.5c-0.4,0-0.8-0.2-1.1-0.5c-0.6-0.6-0.6-1.6,0-2.2l4.3-4.3c0.6-0.6,1.6-0.6,2.2,0
					c0.6,0.6,0.6,1.6,0,2.2l-4.3,4.3C12.8,39.4,12.4,39.5,12,39.5z"/>
			</g>
			<g>
				<path class="st4" d="M38,39.5c-0.4,0-0.8-0.2-1.1-0.5l-4.3-4.3c-0.6-0.6-0.6-1.6,0-2.2c0.6-0.6,1.6-0.6,2.2,0l4.3,4.3
					c0.6,0.6,0.6,1.6,0,2.2C38.8,39.4,38.4,39.5,38,39.5z"/>
			</g>
			<g>
				<path class="st4" d="M16.3,17.8c-0.4,0-0.8-0.2-1.1-0.5l-4.3-4.3c-0.6-0.6-0.6-1.6,0-2.2c0.6-0.6,1.6-0.6,2.2,0l4.3,4.3
					c0.6,0.6,0.6,1.6,0,2.2C17.1,17.7,16.7,17.8,16.3,17.8z"/>
			</g>
			<g>
				<path class="st4" d="M43.4,26.5h-6.1c-0.9,0-1.5-0.7-1.5-1.5s0.7-1.5,1.5-1.5h6.1c0.9,0,1.5,0.7,1.5,1.5S44.2,26.5,43.4,26.5z"
					/>
			</g>
			<g>
				<path class="st4" d="M12.7,26.5H6.6c-0.9,0-1.5-0.7-1.5-1.5s0.7-1.5,1.5-1.5h6.1c0.9,0,1.5,0.7,1.5,1.5S13.6,26.5,12.7,26.5z"/>
			</g>
		</g>
	</g>
</g>
<g id="VR" class="st28">
</g>
<g id="Grid" class="st28">
</g>
</svg>
