<?xml version="1.0" encoding="utf-8"?>
<!-- Generator: Adobe Illustrator 22.0.0, SVG Export Plug-In . SVG Version: 6.00 Build 0)  -->
<svg version="1.1" id="Capa_1" xmlns="http://www.w3.org/2000/svg" xmlns:xlink="http://www.w3.org/1999/xlink" x="0px" y="0px"
	 viewBox="0 0 250 86.8" style="enable-background:new 0 0 250 86.8;" xml:space="preserve">
<style type="text/css">
	.st0{enable-background:new    ;}
	.st1{fill:#FFFFFF;}
	.st2{fill:#DE1326;}
	.st3{display:none;}
</style>
<g id="Design">
	<g>
		<g class="st0">
			<path class="st1" d="M155.5,36.7h2.3v0.5c0,0.3,0.1,0.6,0.2,0.8c0.2,0.2,0.4,0.3,0.7,0.3c0.5,0,0.8-0.3,0.8-1v-4.4h-2.5v-1.9h4.7
				v6.4c0,2-1.5,3-3.1,3s-3.1-1-3.1-3V36.7z"/>
			<path class="st1" d="M167.9,30.8c2.8,0,4.8,2.1,4.8,4.7c0,2.7-2,4.8-4.8,4.8s-4.8-2.1-4.8-4.8C163.1,32.9,165.1,30.8,167.9,30.8z
				 M167.9,38.3c1.4,0,2.5-1.2,2.5-2.8c0-1.5-1.1-2.6-2.5-2.6c-1.4,0-2.5,1.1-2.5,2.6C165.4,37.1,166.5,38.3,167.9,38.3z M168,28.4
				h2.2l-1.5,1.9H167L168,28.4z"/>
			<path class="st1" d="M173,30.9h2.5l1.6,5.2c0.2,0.6,0.3,1.5,0.3,1.5h0c0,0,0.2-0.9,0.3-1.5l1.7-5.2h2.4l-3.3,9.2h-2.3L173,30.9z"
				/>
			<path class="st1" d="M182.9,30.9h5.8v1.9h-3.5v1.7h2.8v1.9h-2.8v1.7h3.7v1.9h-6V30.9z"/>
			<path class="st1" d="M190.5,30.9h2.3l2.6,4.3c0.4,0.6,0.8,1.6,0.8,1.6h0c0,0-0.1-1-0.1-1.6v-4.3h2.3v9.2H196l-2.6-4.3
				c-0.4-0.6-0.8-1.6-0.8-1.6h0c0,0,0.1,1,0.1,1.6v4.3h-2.3V30.9z"/>
			<path class="st1" d="M200.5,30.9h5.8v1.9h-3.5v1.7h2.8v1.9h-2.8v1.7h3.7v1.9h-6V30.9z"/>
			<path class="st1" d="M208.5,37.3c0,0,1,1,2.2,1c0.5,0,1-0.2,1-0.7c0-1.1-4.2-1.1-4.2-3.9c0-1.7,1.4-2.8,3.3-2.8c2,0,3,1,3,1
				l-1,1.8c0,0-0.9-0.8-2-0.8c-0.5,0-1,0.2-1,0.7c0,1.2,4.2,1,4.2,3.9c0,1.5-1.2,2.9-3.2,2.9c-2.2,0-3.4-1.3-3.4-1.3L208.5,37.3z"/>
		</g>
		<g class="st0">
			<path class="st1" d="M156.3,46.4h3.3c2.9,0,4.8,1.7,4.8,4.6s-1.9,4.6-4.8,4.6h-3.3V46.4z M159.5,53.7c1.6,0,2.5-0.9,2.5-2.7
				c0-1.8-1-2.7-2.5-2.7h-0.9v5.4H159.5z"/>
			<path class="st1" d="M165.9,46.4h5.8v1.9h-3.5v1.7h2.8V52h-2.8v1.7h3.7v1.9h-6V46.4z"/>
			<path class="st1" d="M176.9,46.4h2.5l1.3,3.9c0.2,0.6,0.5,1.5,0.5,1.5h0c0,0,0.3-0.9,0.5-1.5l1.3-3.9h2.5l0.7,9.2H184l-0.3-4.2
				c-0.1-0.7,0-1.5,0-1.5h0c0,0-0.3,1-0.5,1.5l-1,2.7h-1.9l-1-2.7c-0.2-0.6-0.5-1.5-0.5-1.5h0c0,0,0.1,0.9,0,1.5l-0.3,4.2h-2.3
				L176.9,46.4z"/>
			<path class="st1" d="M188.1,46.4h5.8v1.9h-3.5v1.7h2.8V52h-2.8v1.7h3.7v1.9h-6V46.4z"/>
			<path class="st1" d="M195.7,46.4h2.3l2.6,4.3c0.4,0.6,0.8,1.6,0.8,1.6h0c0,0-0.1-1-0.1-1.6v-4.3h2.3v9.2h-2.3l-2.6-4.3
				c-0.4-0.6-0.8-1.6-0.8-1.6h0c0,0,0.1,1,0.1,1.6v4.3h-2.3V46.4z"/>
			<path class="st1" d="M205.6,46.4h3.3c2.9,0,4.8,1.7,4.8,4.6s-1.9,4.6-4.8,4.6h-3.3V46.4z M208.8,53.7c1.6,0,2.5-0.9,2.5-2.7
				c0-1.8-1-2.7-2.5-2.7h-0.9v5.4H208.8z"/>
			<path class="st1" d="M219.4,46.3c2.8,0,4.8,2.1,4.8,4.7c0,2.7-2,4.8-4.8,4.8s-4.8-2.1-4.8-4.8C214.6,48.4,216.7,46.3,219.4,46.3z
				 M219.4,53.8c1.4,0,2.5-1.2,2.5-2.8c0-1.5-1.1-2.6-2.5-2.6c-1.4,0-2.5,1.1-2.5,2.6C217,52.6,218.1,53.8,219.4,53.8z"/>
			<path class="st1" d="M225.2,54.2l3.6-5c0.4-0.6,0.7-0.8,0.7-0.8v0c0,0-0.3,0-0.7,0h-3.4v-1.9h7v1.4l-3.6,5.1
				c-0.4,0.6-0.7,0.8-0.7,0.8v0c0,0,0.3,0,0.7,0h3.6v1.9h-7.2V54.2z"/>
			<path class="st1" d="M238.6,53.7h-2.9l-0.6,1.9h-2.3l3.1-9.2h2.4l3.1,9.2h-2.3L238.6,53.7z M237.1,48.5c0,0-0.2,1-0.4,1.6
				l-0.5,1.8h1.8l-0.5-1.8C237.4,49.6,237.2,48.5,237.1,48.5L237.1,48.5z"/>
		</g>
		<g>
			<path class="st1" d="M131.9,61.4H27.6c-2.8,0-5.1-2.3-5.1-5.2l7.7-39.9c0.6-2.9,2.3-5.2,5.1-5.2h104.2c2.8,0,5.7,2.4,5.1,5.2
				L137,56.2C136.5,59,134.7,61.4,131.9,61.4z"/>
			<path class="st2" d="M126.6,20.8H21.5c-2.8,0-4.5,2.2-5.2,5.2L8.6,65.8c-0.5,2.9,2.3,5.2,5.2,5.2h16.3L33,82.3
				c0.2,0.7,0.7,1.3,1.3,1.5c1.3,0.5,2.4,0.1,3.5-0.7L54.7,71h64.1c2.8,0,4.6-2.3,5.2-5.2l7.8-39.9
				C131.8,23.1,129.5,20.8,126.6,20.8z"/>
			<g>
				<g>
					<path class="st1" d="M37.3,34.2c0-2.2,1.5-3.4,3.7-3.4c2.1,0,3.7,1.1,3.7,3.4v16.1c0,4.3-1.3,9.2-9.7,9.2c-2,0-4.4-0.5-5.9-1.3
						c-1.6-0.9-2.3-1.6-2.3-3.2c0-1.5,1-3,3.3-3c1.8,0,2.7,1.5,4.6,1.5s2.6-1.1,2.6-4.2V34.2z"/>
					<path class="st1" d="M48.2,34.3c0-2,1.8-3.2,3.7-3.2h8.8c9.6,0,15,6.6,15,13.7c0,9.1-7,14.1-15,14.1h-8.8
						c-1.9,0-3.7-1.1-3.7-3.2C48.2,55.7,48.2,34.3,48.2,34.3z M55.5,53.1h3.9c5.7,0,8.4-3.4,8.4-8.3c0-4.7-2.7-7.9-8-7.9h-4.2v16.2
						H55.5z"/>
					<path class="st1" d="M79.6,34.9c0.7-3.3,3-4,4.8-4c3.7,0,4.5,1.8,6.3,6.8l3.6,9.6h0.1l3.6-9.6c1.9-5,2.7-6.8,6.3-6.8
						c1.9,0,4.2,0.7,4.8,4l2.9,14.3c0.6,2.9,1.2,6.1,1.2,7c0,1.4-1.3,3-3.4,3c-3.3,0-3.9-2-4.2-4.2l-2.2-12.4h-0.1l-4.9,13.7
						c-0.7,2-1.8,2.9-4,2.9s-3.3-0.8-4-2.9l-4.9-13.7h-0.1L83.2,55c-0.4,2.2-0.9,4.2-4.2,4.2c-2.2,0-3.4-1.6-3.4-3
						c0-0.9,0.6-4.1,1.2-7L79.6,34.9z"/>
				</g>
			</g>
		</g>
	</g>
</g>
<g id="VR" class="st3">
</g>
<g id="Grid" class="st3">
</g>
</svg>
